<svg xmlns="http://www.w3.org/2000/svg" viewBox="0 0 1452 2086" width="1452" height="2086" role="img" aria-label="Candidate pathway projection"><style>.pnode { fill: #ffffff; stroke-width: 1.6; }.pnode.proposed { stroke: #0f4c81; }.pnode.blocked { stroke: #b3261e; }.pnode.root { stroke-width: 2.6; }.pnode-head { font: 600 12px ui-monospace, Menlo, monospace; }.pnode-action { font: 12px sans-serif; }.pnode-condition { font: 10px ui-monospace, Menlo, monospace; fill: #6b7280; }.pnode-meta { font: 10px sans-serif; fill: #6b7280; }.pnode-badge { font: 600 10px sans-serif; }.pnode-badge.proposed { fill: #0f4c81; }.pnode-badge.blocked { fill: #b3261e; }.pnode-stage { font: 600 10px sans-serif; fill: #7a4a9e; }.pedge { fill: none; stroke-width: 1.5; }.pedge.flow { stroke: #0f4c81; }.pedge.branch { stroke: #374151; }.pedge.blocked { stroke: #b3261e; stroke-dasharray: 7 5; }.pedge.cycle { stroke-dasharray: 3 4; }.pedge-label { font: 10px sans-serif; fill: #374151; }.pedge-label.blocked { fill: #b3261e; }</style><defs><marker id="arrow-accent" markerWidth="8" markerHeight="8" refX="7" refY="4" orient="auto"><path d="M0,0 L8,4 L0,8 z" fill="#0f4c81"/></marker><marker id="arrow-ink" markerWidth="8" markerHeight="8" refX="7" refY="4" orient="auto"><path d="M0,0 L8,4 L0,8 z" fill="#374151"/></marker><marker id="arrow-blocked" markerWidth="8" markerHeight="8" refX="7" refY="4" orient="auto"><path d="M0,0 L8,4 L0,8 z" fill="#b3261e"/></marker></defs><g id="n-nac-r01-chest-radiograph"><rect class="pnode proposed root" x="46" y="46" width="268" height="176" rx="7"/><text class="pnode-head proposed" x="56" y="64">nac-r01-chest-radiograph</text><text class="pnode-action" x="56" y="80">Obtain chest radiograph</text><text class="pnode-condition" x="56" y="94">nac_lower_respiratory_features = true</text><text class="pnode-meta" x="56" y="108">p.3 · 5 span(s)</text><text class="pnode-badge proposed" x="304" y="60" text-anchor="end">PROPOSED</text><text class="pnode-stage" x="56" y="214">stage: Diagnostic imaging</text></g><g id="n-nac-r06-basic-laboratory"><rect class="pnode proposed root" x="46" y="248" width="268" height="176" rx="7"/><text class="pnode-head proposed" x="56" y="266">nac-r06-basic-laboratory</text><text class="pnode-action" x="56" y="282">Obtain complete blood count and blood urea</text><text class="pnode-action" x="56" y="296">nitrogen to assess hospitalization need</text><text class="pnode-condition" x="56" y="310">nac_suspected_pneumonia = true</text><text class="pnode-meta" x="56" y="324">p.3 · 5 span(s)</text><text class="pnode-badge proposed" x="304" y="262" text-anchor="end">PROPOSED</text><text class="pnode-stage" x="56" y="416">stage: Laboratory workup (suspected pneumonia)</text></g><g id="n-nac-r18-hospitalization"><rect class="pnode proposed root" x="46" y="450" width="268" height="176" rx="7"/><text class="pnode-head proposed" x="56" y="468">nac-r18-hospitalization</text><text class="pnode-action" x="56" y="484">Admit to hospital</text><text class="pnode-condition" x="56" y="498">OR( nac_decompensated_comorbidity =</text><text class="pnode-condition" x="56" y="512">true, nac_immunosuppressed = true,…</text><text class="pnode-meta" x="56" y="526">p.4 · 10 span(s)</text><text class="pnode-badge proposed" x="304" y="464" text-anchor="end">PROPOSED</text><text class="pnode-stage" x="56" y="618">stage: Hospitalization, severity and microbiology</text></g><g id="n-nac-r21-treatment-no-risk"><rect class="pnode blocked root" x="46" y="652" width="268" height="176" rx="7"/><text class="pnode-head blocked" x="56" y="670">nac-r21-treatment-no-risk</text><text class="pnode-action" x="56" y="686">Cefuroxime 1500 mg IV every 8 hours OR</text><text class="pnode-action" x="56" y="700">ampicillin/sulbactam 3 g IV every 6 hours</text><text class="pnode-action" x="56" y="714">OR moxifloxacin 400 mg IV daily for 5-7</text><text class="pnode-action" x="56" y="728">days</text><text class="pnode-condition" x="56" y="742">nac_no_resistant_risk = true</text><text class="pnode-meta" x="56" y="756">2 issue(s) · p.5 · 1 span(s)</text><text class="pnode-badge blocked" x="304" y="666" text-anchor="end">BLOCKED</text><text class="pnode-stage" x="56" y="820">stage: Empirical treatment (visual evidence, BLOCKED)</text></g><g id="n-nac-r22-treatment-pseudomonas"><rect class="pnode blocked root" x="46" y="854" width="268" height="176" rx="7"/><text class="pnode-head blocked" x="56" y="872">nac-r22-treatment-pseudomonas</text><text class="pnode-action" x="56" y="888">Piperacillin/tazobactam, cefepime,</text><text class="pnode-action" x="56" y="902">meropenem, or ceftazidime/avibactam</text><text class="pnode-action" x="56" y="916">according to the table, for 5-7 days</text><text class="pnode-condition" x="56" y="930">nac_pseudomonas_or_resistant_enterobacteria_risk</text><text class="pnode-condition" x="56" y="944">= true</text><text class="pnode-meta" x="56" y="958">2 issue(s) · p.5 · 1 span(s)</text><text class="pnode-badge blocked" x="304" y="868" text-anchor="end">BLOCKED</text><text class="pnode-stage" x="56" y="1022">stage: Empirical treatment (visual evidence, BLOCKED)</text></g><g id="n-nac-r23-treatment-mrsa-combined"><rect class="pnode blocked root" x="46" y="1056" width="268" height="176" rx="7"/><text class="pnode-head blocked" x="56" y="1074">nac-r23-treatment-mrsa-combined</text><text class="pnode-action" x="56" y="1090">An</text><text class="pnode-action" x="56" y="1104">antipseudomonal/resistant-Enterobacterales</text><text class="pnode-action" x="56" y="1118">option plus linezolid or vancomycin</text><text class="pnode-action" x="56" y="1132">according to the table, for 5-7 days</text><text class="pnode-condition" x="56" y="1146">nac_mrsa_and_other_resistant_risk =</text><text class="pnode-condition" x="56" y="1160">true</text><text class="pnode-meta" x="56" y="1174">2 issue(s) · p.5 · 1 span(s)</text><text class="pnode-badge blocked" x="304" y="1070" text-anchor="end">BLOCKED</text><text class="pnode-stage" x="56" y="1224">stage: Empirical treatment (visual evidence, BLOCKED)</text></g><g id="n-nac-r24-treatment-mrsa-only"><rect class="pnode blocked root" x="46" y="1258" width="268" height="176" rx="7"/><text class="pnode-head blocked" x="56" y="1276">nac-r24-treatment-mrsa-only</text><text class="pnode-action" x="56" y="1292">Cefuroxime or ampicillin/sulbactam plus</text><text class="pnode-action" x="56" y="1306">linezolid or vancomycin according to the</text><text class="pnode-action" x="56" y="1320">table, for 5-7 days</text><text class="pnode-condition" x="56" y="1334">nac_mrsa_only_risk = true</text><text class="pnode-meta" x="56" y="1348">2 issue(s) · p.5 · 1 span(s)</text><text class="pnode-badge blocked" x="304" y="1272" text-anchor="end">BLOCKED</text><text class="pnode-stage" x="56" y="1426">stage: Empirical treatment (visual evidence, BLOCKED)</text></g><g id="n-nac-r25-treatment-postviral"><rect class="pnode blocked root" x="46" y="1460" width="268" height="176" rx="7"/><text class="pnode-head blocked" x="56" y="1478">nac-r25-treatment-postviral</text><text class="pnode-action" x="56" y="1494">Cefuroxime or ceftriaxone; ceftaroline is</text><text class="pnode-action" x="56" y="1508">listed for selected coinfection context,</text><text class="pnode-action" x="56" y="1522">for 5-7 days</text><text class="pnode-condition" x="56" y="1536">nac_postviral_mrsa_context = true</text><text class="pnode-meta" x="56" y="1550">2 issue(s) · p.5 · 1 span(s)</text><text class="pnode-badge blocked" x="304" y="1474" text-anchor="end">BLOCKED</text><text class="pnode-stage" x="56" y="1628">stage: Empirical treatment (visual evidence, BLOCKED)</text></g><g id="n-nac-r02-diagnostic-support"><rect class="pnode proposed" x="410" y="46" width="268" height="176" rx="7"/><text class="pnode-head proposed" x="420" y="64">nac-r02-diagnostic-support</text><text class="pnode-action" x="420" y="80">Diagnosis of pneumonia supported</text><text class="pnode-condition" x="420" y="94">AND( nac_compatible_clinical_picture =</text><text class="pnode-condition" x="420" y="108">true, nac_new_radiographic_infiltrate…</text><text class="pnode-meta" x="420" y="122">p.3 · 5 span(s)</text><text class="pnode-badge proposed" x="668" y="60" text-anchor="end">PROPOSED</text></g><g id="n-nac-r03-repeat-radiograph"><rect class="pnode proposed" x="410" y="248" width="268" height="176" rx="7"/><text class="pnode-head proposed" x="420" y="266">nac-r03-repeat-radiograph</text><text class="pnode-action" x="420" y="282">Repeat chest radiograph</text><text class="pnode-condition" x="420" y="296">AND( nac_initial_radiograph_negative =</text><text class="pnode-condition" x="420" y="310">true, nac_high_clinical_suspicion =…</text><text class="pnode-meta" x="420" y="324">p.3 · 5 span(s)</text><text class="pnode-badge proposed" x="668" y="262" text-anchor="end">PROPOSED</text></g><g id="n-nac-r04-ct-inconclusive"><rect class="pnode proposed" x="410" y="450" width="268" height="176" rx="7"/><text class="pnode-head proposed" x="420" y="468">nac-r04-ct-inconclusive</text><text class="pnode-action" x="420" y="484">Obtain chest CT</text><text class="pnode-condition" x="420" y="498">AND( nac_high_clinical_probability =</text><text class="pnode-condition" x="420" y="512">true, nac_radiograph_inconclusive =…</text><text class="pnode-meta" x="420" y="526">p.3 · 3 span(s)</text><text class="pnode-badge proposed" x="668" y="464" text-anchor="end">PROPOSED</text></g><g id="n-nac-r07-hospital-laboratory"><rect class="pnode proposed" x="410" y="652" width="268" height="176" rx="7"/><text class="pnode-head proposed" x="420" y="670">nac-r07-hospital-laboratory</text><text class="pnode-action" x="420" y="686">Add C-reactive protein, creatinine,</text><text class="pnode-action" x="420" y="700">lactate, and sodium</text><text class="pnode-condition" x="420" y="714">nac_hospitalization_indicated = true</text><text class="pnode-meta" x="420" y="728">p.3 · 5 span(s)</text><text class="pnode-badge proposed" x="668" y="666" text-anchor="end">PROPOSED</text></g><g id="n-nac-r11-blood-cultures"><rect class="pnode proposed" x="410" y="854" width="268" height="176" rx="7"/><text class="pnode-head proposed" x="420" y="872">nac-r11-blood-cultures</text><text class="pnode-action" x="420" y="888">Obtain two blood-culture bottle samples</text><text class="pnode-action" x="420" y="902">and one anaerobic-culture bottle sample</text><text class="pnode-action" x="420" y="916">before the first intravenous antibiotic</text><text class="pnode-action" x="420" y="930">dose</text><text class="pnode-condition" x="420" y="944">AND( nac_hospitalized_for_pneumonia =</text><text class="pnode-condition" x="420" y="958">true, OR( nac_bun &gt; 30, nac_crp &gt; 15,…</text><text class="pnode-meta" x="420" y="972">1 issue(s) · p.3 · 5 span(s)</text><text class="pnode-badge proposed" x="668" y="868" text-anchor="end">PROPOSED</text></g><g id="n-nac-r12-sputum-culture"><rect class="pnode proposed" x="410" y="1056" width="268" height="176" rx="7"/><text class="pnode-head proposed" x="420" y="1074">nac-r12-sputum-culture</text><text class="pnode-action" x="420" y="1090">Obtain sputum for Gram stain and culture</text><text class="pnode-condition" x="420" y="1104">AND( nac_confirmed_pneumonia = true,</text><text class="pnode-condition" x="420" y="1118">nac_hospitalization_indicated = true )</text><text class="pnode-meta" x="420" y="1132">p.3,4 · 11 span(s)</text><text class="pnode-badge proposed" x="668" y="1070" text-anchor="end">PROPOSED</text></g><g id="n-nac-r14-filmarray"><rect class="pnode proposed" x="410" y="1258" width="268" height="176" rx="7"/><text class="pnode-head proposed" x="420" y="1276">nac-r14-filmarray</text><text class="pnode-action" x="420" y="1292">Request respiratory FilmArray molecular</text><text class="pnode-action" x="420" y="1306">testing</text><text class="pnode-condition" x="420" y="1320">AND( nac_confirmed_pneumonia = true,</text><text class="pnode-condition" x="420" y="1334">nac_hospitalization_indicated = true )</text><text class="pnode-meta" x="420" y="1348">p.3,4 · 11 span(s)</text><text class="pnode-badge proposed" x="668" y="1272" text-anchor="end">PROPOSED</text></g><g id="n-nac-r19-icu-direct"><rect class="pnode proposed" x="410" y="1460" width="268" height="176" rx="7"/><text class="pnode-head proposed" x="420" y="1478">nac-r19-icu-direct</text><text class="pnode-action" x="420" y="1494">Admit to ICU or intermediate care unit</text><text class="pnode-condition" x="420" y="1508">OR( nac_respiratory_failure = true,</text><text class="pnode-condition" x="420" y="1522">nac_septic_shock = true, nac_lactate …</text><text class="pnode-meta" x="420" y="1536">1 issue(s) · p.4 · 13 span(s)</text><text class="pnode-badge proposed" x="668" y="1474" text-anchor="end">PROPOSED</text></g><g id="n-nac-r20-icu-three-criteria"><rect class="pnode proposed" x="410" y="1662" width="268" height="176" rx="7"/><text class="pnode-head proposed" x="420" y="1680">nac-r20-icu-three-criteria</text><text class="pnode-action" x="420" y="1696">Admit to ICU or intermediate care unit</text><text class="pnode-condition" x="420" y="1710">AT_LEAST_N(3; nac_bun &gt; 30,</text><text class="pnode-condition" x="420" y="1724">nac_respiratory_rate &gt; 30,…</text><text class="pnode-meta" x="420" y="1738">2 issue(s) · p.4 · 13 span(s)</text><text class="pnode-badge proposed" x="668" y="1676" text-anchor="end">PROPOSED</text></g><g id="n-nac-r27-discharge"><rect class="pnode proposed" x="410" y="1864" width="268" height="176" rx="7"/><text class="pnode-head proposed" x="420" y="1882">nac-r27-discharge</text><text class="pnode-action" x="420" y="1898">Discharge patient</text><text class="pnode-condition" x="420" y="1912">AND( nac_afebrile_duration &gt;= 48,</text><text class="pnode-condition" x="420" y="1926">nac_systolic_bp &gt; 90, nac_heart_rate …</text><text class="pnode-meta" x="420" y="1940">1 issue(s) · p.5 · 6 span(s)</text><text class="pnode-badge proposed" x="668" y="1878" text-anchor="end">PROPOSED</text></g><g id="n-nac-r08-severe-laboratory"><rect class="pnode proposed" x="774" y="46" width="268" height="176" rx="7"/><text class="pnode-head proposed" x="784" y="64">nac-r08-severe-laboratory</text><text class="pnode-action" x="784" y="80">Add coagulation tests, AST, ALT,</text><text class="pnode-action" x="784" y="94">bilirubin, and arterial blood gases</text><text class="pnode-condition" x="784" y="108">OR( nac_septic_shock = true,</text><text class="pnode-condition" x="784" y="122">nac_severe_sepsis = true,…</text><text class="pnode-meta" x="784" y="136">p.3 · 5 span(s)</text><text class="pnode-badge proposed" x="1032" y="60" text-anchor="end">PROPOSED</text></g><g id="n-nac-r09-desaturation-abg"><rect class="pnode proposed" x="774" y="248" width="268" height="176" rx="7"/><text class="pnode-head proposed" x="784" y="266">nac-r09-desaturation-abg</text><text class="pnode-action" x="784" y="282">Obtain arterial blood gases</text><text class="pnode-condition" x="784" y="296">nac_desaturation = true</text><text class="pnode-meta" x="784" y="310">p.3 · 5 span(s)</text><text class="pnode-badge proposed" x="1032" y="262" text-anchor="end">PROPOSED</text></g><g id="n-nac-r13-induced-sputum"><rect class="pnode proposed" x="774" y="450" width="268" height="176" rx="7"/><text class="pnode-head proposed" x="784" y="468">nac-r13-induced-sputum</text><text class="pnode-action" x="784" y="484">Induce sputum with 3% hypertonic saline</text><text class="pnode-action" x="784" y="498">nebulization</text><text class="pnode-condition" x="784" y="512">nac_unable_spontaneous_sputum = true</text><text class="pnode-meta" x="784" y="526">p.3,4 · 11 span(s)</text><text class="pnode-badge proposed" x="1032" y="464" text-anchor="end">PROPOSED</text></g><g id="n-nac-r15-deep-filmarray"><rect class="pnode proposed" x="774" y="652" width="268" height="176" rx="7"/><text class="pnode-head proposed" x="784" y="670">nac-r15-deep-filmarray</text><text class="pnode-action" x="784" y="686">Use pneumonia FilmArray panel (code</text><text class="pnode-action" x="784" y="700">502828) as first option with deep</text><text class="pnode-action" x="784" y="714">respiratory sample</text><text class="pnode-condition" x="784" y="728">nac_no_sars_cov2_suspicion = true</text><text class="pnode-meta" x="784" y="742">p.3,4 · 11 span(s)</text><text class="pnode-badge proposed" x="1032" y="666" text-anchor="end">PROPOSED</text></g><g id="n-nac-r16-nasopharyngeal-panel"><rect class="pnode proposed" x="774" y="854" width="268" height="176" rx="7"/><text class="pnode-head proposed" x="784" y="872">nac-r16-nasopharyngeal-panel</text><text class="pnode-action" x="784" y="888">Use respiratory pathogen panel (code</text><text class="pnode-action" x="784" y="902">502162) from nasopharyngeal swab</text><text class="pnode-condition" x="784" y="916">nac_no_expectorated_sample = true</text><text class="pnode-meta" x="784" y="930">p.3,4 · 11 span(s)</text><text class="pnode-badge proposed" x="1032" y="868" text-anchor="end">PROPOSED</text></g><g id="n-nac-r17-pleural-study"><rect class="pnode proposed" x="774" y="1056" width="268" height="176" rx="7"/><text class="pnode-head proposed" x="784" y="1074">nac-r17-pleural-study</text><text class="pnode-action" x="784" y="1090">Perform diagnostic thoracentesis and</text><text class="pnode-action" x="784" y="1104">pleural-fluid cytochemistry, LDH, total</text><text class="pnode-action" x="784" y="1118">protein, Gram stain, and culture</text><text class="pnode-condition" x="784" y="1132">nac_parapneumonic_effusion_over_1cm =</text><text class="pnode-condition" x="784" y="1146">true</text><text class="pnode-meta" x="784" y="1160">p.4 · 3 span(s)</text><text class="pnode-badge proposed" x="1032" y="1070" text-anchor="end">PROPOSED</text></g><g id="n-nac-r26-adjust-to-results"><rect class="pnode blocked" x="774" y="1258" width="268" height="176" rx="7"/><text class="pnode-head blocked" x="784" y="1276">nac-r26-adjust-to-results</text><text class="pnode-action" x="784" y="1292">Adjust antimicrobial treatment according</text><text class="pnode-action" x="784" y="1306">to molecular testing or culture</text><text class="pnode-condition" x="784" y="1320">nac_molecular_or_culture_result_available</text><text class="pnode-condition" x="784" y="1334">= true</text><text class="pnode-meta" x="784" y="1348">p.5 · 1 span(s)</text><text class="pnode-badge blocked" x="1032" y="1272" text-anchor="end">BLOCKED</text></g><g id="n-nac-r28-discharge-education"><rect class="pnode proposed" x="774" y="1460" width="268" height="176" rx="7"/><text class="pnode-head proposed" x="784" y="1478">nac-r28-discharge-education</text><text class="pnode-action" x="784" y="1494">Explain relapse warning signs: fever,</text><text class="pnode-action" x="784" y="1508">dyspnea, and chest pain</text><text class="pnode-condition" x="784" y="1522">nac_at_discharge = true</text><text class="pnode-meta" x="784" y="1536">p.6 · 2 span(s)</text><text class="pnode-badge proposed" x="1032" y="1474" text-anchor="end">PROPOSED</text></g><g id="n-nac-r29-follow-up"><rect class="pnode proposed" x="774" y="1662" width="268" height="176" rx="7"/><text class="pnode-head proposed" x="784" y="1680">nac-r29-follow-up</text><text class="pnode-action" x="784" y="1696">Internal medicine review</text><text class="pnode-condition" x="784" y="1710">nac_at_discharge = true</text><text class="pnode-meta" x="784" y="1724">p.6 · 2 span(s)</text><text class="pnode-badge proposed" x="1032" y="1676" text-anchor="end">PROPOSED</text></g><g id="n-nac-r10-pleural-serum-tests"><rect class="pnode proposed" x="1138" y="46" width="268" height="176" rx="7"/><text class="pnode-head proposed" x="1148" y="64">nac-r10-pleural-serum-tests</text><text class="pnode-action" x="1148" y="80">Obtain serum lactate dehydrogenase and</text><text class="pnode-action" x="1148" y="94">total proteins</text><text class="pnode-condition" x="1148" y="108">nac_pleural_effusion_with_thoracentesis</text><text class="pnode-condition" x="1148" y="122">= true</text><text class="pnode-meta" x="1148" y="136">p.3 · 5 span(s)</text><text class="pnode-badge proposed" x="1396" y="60" text-anchor="end">PROPOSED</text></g><path id="e-nac-rel-01" class="pedge branch" d="M 314 134 C 362 134 362 134 410 134" marker-end="url(#arrow-ink)"/><text class="pedge-label" x="362" y="128" text-anchor="middle">compatible picture plus new infiltrate</text><path id="e-nac-rel-02" class="pedge branch" d="M 314 134 C 362 134 362 336 410 336" marker-end="url(#arrow-ink)"/><text class="pedge-label" x="362" y="229" text-anchor="middle">negative initial radiograph and high suspicion</text><path id="e-nac-rel-03" class="pedge branch" d="M 314 134 C 362 134 362 538 410 538" marker-end="url(#arrow-ink)"/><text class="pedge-label" x="362" y="330" text-anchor="middle">inconclusive radiograph with CT indication</text><path id="e-nac-rel-06" class="pedge branch" d="M 314 538 C 362 538 362 740 410 740" marker-end="url(#arrow-ink)"/><text class="pedge-label" x="362" y="633" text-anchor="middle">hospitalization indicated</text><path id="e-nac-rel-07" class="pedge branch" d="M 314 538 C 362 538 362 1144 410 1144" marker-end="url(#arrow-ink)"/><text class="pedge-label" x="362" y="835" text-anchor="middle">hospitalization indicated</text><path id="e-nac-rel-08" class="pedge branch" d="M 314 538 C 362 538 362 1346 410 1346" marker-end="url(#arrow-ink)"/><text class="pedge-label" x="362" y="936" text-anchor="middle">confirmed pneumonia and hospitalization indicated</text><path id="e-nac-rel-09" class="pedge branch" d="M 314 538 C 362 538 362 942 410 942" marker-end="url(#arrow-ink)"/><text class="pedge-label" x="362" y="734" text-anchor="middle">hospitalized and blood-culture criteria met</text><path id="e-nac-rel-10" class="pedge branch" d="M 678 740 C 726 740 726 134 774 134" marker-end="url(#arrow-ink)"/><text class="pedge-label" x="726" y="431" text-anchor="middle">severe context</text><path id="e-nac-rel-10a" class="pedge branch" d="M 678 740 C 726 740 726 336 774 336" marker-end="url(#arrow-ink)"/><text class="pedge-label" x="726" y="532" text-anchor="middle">desaturation</text><path id="e-nac-rel-11" class="pedge branch" d="M 314 538 C 362 538 362 1548 410 1548" marker-end="url(#arrow-ink)"/><text class="pedge-label" x="362" y="1037" text-anchor="middle">direct ICU/UCE indication</text><path id="e-nac-rel-12" class="pedge branch" d="M 314 538 C 362 538 362 1750 410 1750" marker-end="url(#arrow-ink)"/><text class="pedge-label" x="362" y="1138" text-anchor="middle">three or more listed criteria</text><path id="e-nac-rel-18" class="pedge branch" d="M 678 1346 C 726 1346 726 1346 774 1346" marker-end="url(#arrow-ink)"/><text class="pedge-label" x="726" y="1340" text-anchor="middle">molecular result available</text><path id="e-nac-rel-19" class="pedge branch" d="M 678 1144 C 726 1144 726 1346 774 1346" marker-end="url(#arrow-ink)"/><text class="pedge-label" x="726" y="1239" text-anchor="middle">culture result available</text><path id="e-nac-rel-20" class="pedge flow" d="M 314 740 C 362 740 362 1952 410 1952" marker-end="url(#arrow-accent)"/><text class="pedge-label" x="362" y="1340" text-anchor="middle">discharge criteria subsequently met</text><path id="e-nac-rel-21" class="pedge flow" d="M 314 942 C 362 942 362 1952 410 1952" marker-end="url(#arrow-accent)"/><text class="pedge-label" x="362" y="1441" text-anchor="middle">discharge criteria subsequently met</text><path id="e-nac-rel-22" class="pedge flow" d="M 314 1144 C 362 1144 362 1952 410 1952" marker-end="url(#arrow-accent)"/><text class="pedge-label" x="362" y="1542" text-anchor="middle">discharge criteria subsequently met</text><path id="e-nac-rel-23" class="pedge flow" d="M 314 1346 C 362 1346 362 1952 410 1952" marker-end="url(#arrow-accent)"/><text class="pedge-label" x="362" y="1643" text-anchor="middle">discharge criteria subsequently met</text><path id="e-nac-rel-24" class="pedge flow" d="M 314 1548 C 362 1548 362 1952 410 1952" marker-end="url(#arrow-accent)"/><text class="pedge-label" x="362" y="1744" text-anchor="middle">discharge criteria subsequently met</text><path id="e-nac-rel-25" class="pedge flow" d="M 678 1952 C 726 1952 726 1548 774 1548" marker-end="url(#arrow-accent)"/><path id="e-nac-rel-26" class="pedge flow" d="M 678 1952 C 726 1952 726 1750 774 1750" marker-end="url(#arrow-accent)"/><path id="e-nac-rel-28" class="pedge branch" d="M 1042 1144 C 1090 1144 1090 134 1138 134" marker-end="url(#arrow-ink)"/><text class="pedge-label" x="1090" y="633" text-anchor="middle">thoracentesis indicated</text><path id="e-nac-rel-29" class="pedge branch" d="M 678 1144 C 726 1144 726 538 774 538" marker-end="url(#arrow-ink)"/><text class="pedge-label" x="726" y="835" text-anchor="middle">cannot produce spontaneous sample</text><path id="e-nac-rel-30" class="pedge branch" d="M 678 1346 C 726 1346 726 740 774 740" marker-end="url(#arrow-ink)"/><text class="pedge-label" x="726" y="1037" text-anchor="middle">deep sample available and no SARS-CoV-2 suspicion</text><path id="e-nac-rel-31" class="pedge branch" d="M 678 1346 C 726 1346 726 942 774 942" marker-end="url(#arrow-ink)"/><text class="pedge-label" x="726" y="1138" text-anchor="middle">patient does not expectorate</text><path id="e-nac-rel-32" class="pedge branch" d="M 678 134 C 726 134 726 1144 774 1144" marker-end="url(#arrow-ink)"/><text class="pedge-label" x="726" y="633" text-anchor="middle">qualifying presumed parapneumonic effusion</text></svg>